# xmcd CD database file
# Copyright (C) 1993-1998 Ti Kan
# 
# Track frame offsets:
#     150
#     46153
#     78333
#     113830
#     138418
# 
# Disc length: 2304 seconds
# 
# Revision: 1
# Processed by: cddbd v1.4b41PL1 Copyright (c) Steve Scherf et al.
# Submitted via: DiscPlay 4.0.4
# 
DISCID=3708fe05
DTITLE=Gladezz - When You Need Somebody (Everybody Needs Somebody)
DYEAR=1900
DGENRE=
TTITLE0=Junior Vasquez Mix
TTITLE1=Junior's Euro Mix
TTITLE2=Stonebridge Club Mix
TTITLE3=Cool Down Mix
TTITLE4=The Serial Diva Horny Dub
EXTD=
EXTT0=
EXTT1=
EXTT2=
EXTT3=
EXTT4=
PLAYORDER=
